<svg width="277" height="292" viewBox="0 0 277 292" fill="none" xmlns="http://www.w3.org/2000/svg">
<path d="M273.558 156.72C273.558 231.433 213.008 292 138.316 292C63.6237 292 3.07386 231.433 3.07386 156.72C3.07386 82.0073 63.6237 21.4404 138.316 21.4404C213.008 21.4404 273.558 82.0073 273.558 156.72Z" fill="black"/>
<path d="M5.09602 54.9647C6.4473 59.5857 8.26524 64.0978 10.2139 68.8527C12.3117 73.4295 14.5099 78.2535 17.2265 82.7818C18.5394 85.2093 20.0022 87.561 21.541 89.8832C33.306 67.6783 55.5232 51.3695 75.8175 36.7553C73.1946 36.5434 67.621 35.5197 65.0596 34.7133C61.9859 33.7457 55.8546 31.3691 52.5835 30.4192C49.511 29.35 46.2325 28.2058 43.3616 26.832L38.9924 24.7371L35.0243 22.462C32.2552 20.9373 30.2497 19.2935 27.9533 17.6924C26.0039 16.0971 24.1136 14.4739 22.594 12.9713C21.2567 11.493 19.8663 10.0369 18.9566 8.83158L15.1582 3.08112C14.4427 2.00001 13.4345 1.14298 12.2504 0.609264C11.0663 0.0755438 9.7547 -0.113037 8.46748 0.0653584C7.18026 0.243754 5.97008 0.781826 4.97705 1.61727C3.98402 2.45272 3.24877 3.55138 2.85644 4.78602C2.85644 4.78602 2.14831 7.01483 1.08648 11.4482C0.651564 13.6203 0.425612 16.1729 0.105145 19.3435C-0.066903 22.3957 -0.013 25.8085 0.159786 29.6649C0.561478 33.2668 0.851671 37.5964 1.78428 41.7052C2.2096 43.8067 2.64451 46.0355 3.17986 48.271L5.09602 54.9647Z" fill="black"/>
<path d="M271.536 54.9647C270.184 59.5857 268.366 64.0978 266.418 68.8527C264.32 73.4295 262.122 78.2535 259.405 82.7818C258.092 85.2093 256.629 87.561 255.091 89.8832C243.326 67.6783 221.108 51.3695 200.814 36.7553C203.437 36.5434 209.011 35.5197 211.572 34.7133C214.646 33.7457 220.777 31.3691 224.048 30.4192C227.121 29.35 230.399 28.2058 233.27 26.832L237.639 24.7371L241.607 22.462C244.376 20.9373 246.382 19.2935 248.678 17.6924C250.628 16.0971 252.518 14.4739 254.038 12.9713C255.375 11.493 256.765 10.0369 257.675 8.83158L261.473 3.08112C262.189 2.00001 263.197 1.14298 264.381 0.609264C265.565 0.0755438 266.877 -0.113037 268.164 0.0653584C269.451 0.243754 270.662 0.781826 271.655 1.61727C272.648 2.45272 273.383 3.55138 273.775 4.78602C273.775 4.78602 274.483 7.01483 275.545 11.4482C275.98 13.6203 276.206 16.1729 276.526 19.3435C276.699 22.3957 276.645 25.8085 276.472 29.6649C276.07 33.2668 275.78 37.5964 274.847 41.7052C274.422 43.8067 273.987 46.0355 273.452 48.271L271.536 54.9647Z" fill="black"/>
</svg>
