<svg width="2022" height="292" viewBox="0 0 2022 292" fill="none" xmlns="http://www.w3.org/2000/svg">
<path fill-rule="evenodd" clip-rule="evenodd" d="M0 0.899353V291.502H191.625L174.182 240.845H61.441V171.458H150.289L132.846 120.801H61.441V51.5562H109.002L91.5589 0.899353H0Z" fill="black"/>
<path d="M528.674 291.502V0.899353H590.115V240.845H714.699V291.502H528.674Z" fill="black"/>
<path fill-rule="evenodd" clip-rule="evenodd" d="M479.462 291.502V0.899353H476.581L418.021 170.605V291.502H479.462Z" fill="black"/>
<path d="M212.333 0.899353L282.572 221.689H285.268L355.648 0.899353H423.758L323.58 291.502H244.402L144.081 0.899353H212.333Z" fill="black"/>
<path fill-rule="evenodd" clip-rule="evenodd" d="M957.974 0C963.217 0 968.341 0.224713 973.346 0.674139V54.3395C968.904 53.5492 964.253 53.154 959.391 53.154C944.365 53.154 931.276 56.8086 920.124 64.1179C908.972 71.3346 900.325 81.8821 894.182 95.7605C888.039 109.546 884.968 126.293 884.968 146C884.968 166.262 888.039 183.286 894.182 197.072C900.419 210.858 909.114 221.267 920.266 228.299C931.417 235.33 944.318 238.846 958.966 238.846C963.988 238.846 968.782 238.449 973.346 237.655V291.342C968.377 291.781 963.253 292 957.974 292C932.079 292 908.925 286.264 888.511 274.791C868.193 263.318 852.126 246.71 840.313 224.968C828.594 203.225 822.735 176.902 822.735 146C822.735 115.005 828.689 88.6363 840.597 66.8936C852.505 45.1508 868.665 28.5894 889.079 17.2091C909.492 5.73638 932.457 0 957.974 0Z" fill="black"/>
<path fill-rule="evenodd" clip-rule="evenodd" d="M1022.52 0V292H1084.34V171.379H1150.88L1168.7 120.479H1084.34V0H1022.52Z" fill="black"/>
<path fill-rule="evenodd" clip-rule="evenodd" d="M1581.45 0.899353H1789.89C1774.04 14.6732 1764.06 36.3333 1759.93 51.5562H1715.43V291.502H1654.7V51.5562H1611.41C1607.29 36.3333 1597.3 14.6732 1581.45 0.899353Z" fill="black"/>
<path fill-rule="evenodd" clip-rule="evenodd" d="M1392.79 0.899353H1467.07C1489.02 0.899353 1507.75 4.82514 1523.26 12.6767C1538.87 20.4337 1550.74 31.4543 1558.88 45.7385C1567.11 59.9281 1571.22 76.6245 1571.22 95.8277C1571.22 115.126 1567.06 131.727 1558.74 145.633C1550.41 159.444 1538.35 170.039 1522.55 177.418C1520.64 178.315 1518.69 179.158 1516.68 179.946L1556.15 291.502L1492.9 291.502L1440.4 139.106H1455.58C1467.31 139.106 1477.05 137.498 1484.81 134.282C1492.57 131.065 1498.34 126.241 1502.12 119.808C1506 113.376 1507.94 105.382 1507.94 95.8277C1507.94 86.1788 1506 78.0435 1502.12 71.4216C1498.34 64.7998 1492.52 59.7862 1484.67 56.3807C1476.91 52.8806 1467.12 51.1305 1455.29 51.1305H1409.81L1392.79 0.899353Z" fill="black"/>
<path d="M1227.31 291.502H1161.47L1261.79 0.899353H1340.97L1441.15 291.502H1375.31L1302.52 67.3067H1300.25L1227.31 291.502ZM1223.2 177.276H1378.71V225.237H1223.2V177.276Z" fill="black"/>
<path d="M1959.27 85.5886C1958.15 74.3987 1953.33 65.7058 1944.81 59.5097C1936.29 53.3137 1924.73 50.2157 1910.13 50.2157C1900.21 50.2157 1891.83 51.6029 1885 54.3772C1878.17 57.0591 1872.93 60.8045 1869.28 65.6133C1865.72 70.4222 1863.94 75.8784 1863.94 81.982C1863.75 87.0683 1864.83 91.5072 1867.17 95.2988C1869.6 99.0904 1872.93 102.373 1877.14 105.148C1881.35 107.83 1886.22 110.188 1891.74 112.222C1897.26 114.164 1903.16 115.829 1909.43 117.216L1935.26 123.32C1947.81 126.094 1959.32 129.793 1969.8 134.417C1980.29 139.041 1989.37 144.728 1997.04 151.479C2004.72 158.23 2010.66 166.183 2014.87 175.339C2019.18 184.494 2021.38 194.99 2021.47 206.828C2021.38 224.213 2016.89 239.287 2007.99 252.049C1999.19 264.719 1986.46 274.568 1969.8 281.596C1953.24 288.532 1933.25 292 1909.85 292C1886.64 292 1866.42 288.486 1849.2 281.458C1832.07 274.429 1818.68 264.025 1809.04 250.246C1799.5 236.374 1794.49 219.22 1794.02 198.782H1852.85C1853.5 208.307 1856.26 216.26 1861.13 222.641C1866.09 228.93 1872.69 233.693 1880.93 236.929C1889.26 240.074 1898.67 241.646 1909.15 241.646C1919.45 241.646 1928.38 240.166 1935.97 237.207C1943.64 234.247 1949.59 230.132 1953.8 224.861C1958.01 219.59 1960.12 213.532 1960.12 206.689C1960.12 200.308 1958.2 194.944 1954.36 190.598C1950.62 186.251 1945.09 182.552 1937.79 179.5C1930.58 176.448 1921.74 173.674 1911.26 171.177L1879.95 163.409C1855.7 157.583 1836.56 148.474 1822.52 136.082C1808.48 123.69 1801.51 106.997 1801.6 86.0048C1801.51 68.8038 1806.14 53.7761 1815.5 40.9216C1824.95 28.0672 1837.92 18.0333 1854.39 10.82C1870.87 3.60665 1889.59 0 1910.55 0C1931.9 0 1950.52 3.60665 1966.43 10.82C1982.44 18.0333 1994.89 28.0672 2003.78 40.9216C2012.67 53.7761 2017.26 68.6651 2017.54 85.5886H1959.27Z" fill="black"/>
</svg>
