<svg width="512" height="512" viewBox="0 0 512 512" fill="none" xmlns="http://www.w3.org/2000/svg">
<rect width="512" height="512" rx="256" fill="#0D0D0D"/>
<path d="M376.267 265.545C376.267 332.071 322.421 386 256 386C189.579 386 135.733 332.071 135.733 265.545C135.733 199.02 189.579 145.091 256 145.091C322.421 145.091 376.267 199.02 376.267 265.545Z" fill="white"/>
<path d="M137.532 174.941C138.733 179.056 140.35 183.073 142.083 187.307C143.948 191.382 145.903 195.678 148.319 199.71C149.487 201.871 150.416 203.317 151.785 205.385C163.235 188.329 176.13 171.411 200.422 158.727C198.09 158.539 193.133 157.627 190.855 156.909C188.122 156.048 182.67 153.931 179.761 153.086C177.029 152.134 174.113 151.115 171.56 149.892L167.675 148.026L164.146 146C161.684 144.643 159.9 143.179 157.858 141.753C156.124 140.333 154.443 138.888 153.092 137.55C151.903 136.234 150.666 134.937 149.858 133.864L146.48 128.743C145.843 127.781 144.947 127.018 143.894 126.542C142.841 126.067 141.675 125.899 140.53 126.058C139.385 126.217 138.309 126.696 137.426 127.44C136.543 128.184 135.889 129.162 135.54 130.262C135.54 130.262 134.91 132.246 133.966 136.194C133.579 138.128 133.378 140.401 133.094 143.224C132.941 145.941 132.988 148.98 133.142 152.414C133.499 155.621 133.757 159.476 134.587 163.135C134.965 165.006 135.352 166.991 135.828 168.981L137.532 174.941Z" fill="white"/>
<path d="M374.468 174.941C373.267 179.056 371.65 183.073 369.917 187.307C368.052 191.382 366.097 195.678 363.681 199.71C362.514 201.871 361.213 203.965 359.844 206.033C349.382 186.261 329.625 171.74 311.578 158.727C313.91 158.539 318.867 157.627 321.145 156.909C323.878 156.048 329.33 153.931 332.239 153.086C334.971 152.134 337.887 151.115 340.44 149.892L344.325 148.026L347.854 146C350.316 144.643 352.1 143.179 354.142 141.753C355.876 140.333 357.557 138.888 358.908 137.55C360.097 136.234 361.334 134.937 362.142 133.864L365.52 128.743C366.157 127.781 367.053 127.018 368.106 126.542C369.159 126.067 370.325 125.899 371.47 126.058C372.615 126.217 373.691 126.696 374.574 127.44C375.457 128.184 376.111 129.162 376.46 130.262C376.46 130.262 377.09 132.246 378.034 136.194C378.421 138.128 378.622 140.401 378.907 143.224C379.06 145.941 379.012 148.98 378.858 152.414C378.501 155.621 378.243 159.476 377.413 163.135C377.035 165.006 376.648 166.991 376.172 168.981L374.468 174.941Z" fill="white"/>
</svg>
